# xmcd
# Copyright (C) 1995-1998 Ti Kan
#
# Track frame offsets:
#       150
#       13247
#       31907
#       49455
#       65762
#       80979
#       94575
#       111710
#       124485
#       142412
#       164647
#       167012
#       169090
#       171810
#       173535
#       175265
#       177820
#       179190
#
# Disc length: 2481 seconds
#
# Revision: 0
# Processed by: cddbd v1.4b42PL1 Copyright (c) Steve Scherf et al.
# Submitted via: CD-Transfer v1.0
#
DISCID=1509af12
DTITLE=Daniela Mühleis and Band - Open Minds
DYEAR=1997
DGENRE=
TTITLE0=Honky Tonk Baby
TTITLE1=Papacita
TTITLE2=If You've The Guts
TTITLE3=Ease My Troubled Mind
TTITLE4=Crazy Mixed Up World
TTITLE5=Light In My Life
TTITLE6=Shackles And Chains
TTITLE7=Restless
TTITLE8=Fairytales
TTITLE9=Already Gone
TTITLE10=Announcement From Life Show: St. Stefano
TTITLE11=Announcement From Life Show: Holany
TTITLE12=Announcement From Life Show: Visaginas
TTITLE13=Announcement From Life Show: Malta
TTITLE14=Announcement From Life Show: Zevenbergen
TTITLE15=Announcement From Life Show: Mirande
TTITLE16=Announcement From Life Show: Baindt
TTITLE17=Announcement From Life Show: Tirana
EXTD=
EXTT0=
EXTT1=
EXTT2=
EXTT3=
EXTT4=
EXTT5=
EXTT6=
EXTT7=
EXTT8=
EXTT9=
EXTT10=
EXTT11=
EXTT12=
EXTT13=
EXTT14=
EXTT15=
EXTT16=
EXTT17=
PLAYORDER=
